<svg xmlns="http://www.w3.org/2000/svg" width="1200" height="630" viewBox="0 0 1200 630" role="img" aria-label="PawBiotix dog probiotics">
  <defs><linearGradient id="bg" x1="0" y1="0" x2="1" y2="1"><stop offset="0" stop-color="#e9f7ee"/><stop offset="1" stop-color="#d3f0f4"/></linearGradient></defs>
  <rect width="1200" height="630" fill="url(#bg)"/>
  <g fill="#00a536" transform="translate(90,120)">
    <circle cx="12" cy="15" r="9"/><circle cx="40" cy="6" r="9"/><circle cx="68" cy="15" r="9"/>
    <path d="M40 24c-14 0-25 10-25 23 0 8 6 13 13 13 5 0 8-2 12-2s7 2 12 2c7 0 13-5 13-13 0-13-11-23-25-23Z"/>
  </g>
  <text x="90" y="290" font-family="'Segoe UI',system-ui,sans-serif" font-size="76" font-weight="800" fill="#272727">PawBiotix</text>
  <text x="92" y="360" font-family="'Segoe UI',system-ui,sans-serif" font-size="40" font-weight="600" fill="#008d65">Natural Dog Probiotics for Gut Health</text>
  <text x="92" y="430" font-family="'Segoe UI',system-ui,sans-serif" font-size="30" fill="#4b5563">5 probiotic strains · digestion, immunity &amp; healthy stools</text>
  <rect x="92" y="470" width="360" height="70" rx="35" fill="#00a536"/>
  <text x="272" y="515" text-anchor="middle" font-family="'Segoe UI',system-ui,sans-serif" font-size="28" font-weight="700" fill="#fff">60-Day Guarantee</text>
</svg>
